<mxfile host="app.diagrams.net" modified="2021-03-25T07:54:20.806Z" agent="5.0 (Windows NT 10.0; Win64; x64) AppleWebKit/537.36 (KHTML, like Gecko) Chrome/89.0.4389.90 Safari/537.36" etag="koiHYl0YZMZgIqYgNsjs" version="14.5.1" type="github">
  <diagram id="C5RBs43oDa-KdzZeNtuy" name="Page-1">
    <mxGraphModel dx="1038" dy="548" grid="1" gridSize="10" guides="1" tooltips="1" connect="1" arrows="1" fold="1" page="1" pageScale="1" pageWidth="827" pageHeight="1169" math="0" shadow="0">
      <root>
        <mxCell id="WIyWlLk6GJQsqaUBKTNV-0" />
        <mxCell id="WIyWlLk6GJQsqaUBKTNV-1" parent="WIyWlLk6GJQsqaUBKTNV-0" />
        <mxCell id="idAk820mfBJ3iC1625Qn-3" value="" style="edgeStyle=orthogonalEdgeStyle;rounded=0;orthogonalLoop=1;jettySize=auto;html=1;" edge="1" parent="WIyWlLk6GJQsqaUBKTNV-1" source="idAk820mfBJ3iC1625Qn-1" target="idAk820mfBJ3iC1625Qn-2">
          <mxGeometry relative="1" as="geometry" />
        </mxCell>
        <mxCell id="idAk820mfBJ3iC1625Qn-1" value="从容器中获取一个Bean实例" style="rounded=1;whiteSpace=wrap;html=1;" vertex="1" parent="WIyWlLk6GJQsqaUBKTNV-1">
          <mxGeometry x="90" y="50" width="110" height="60" as="geometry" />
        </mxCell>
        <mxCell id="idAk820mfBJ3iC1625Qn-7" value="" style="edgeStyle=orthogonalEdgeStyle;rounded=0;orthogonalLoop=1;jettySize=auto;html=1;" edge="1" parent="WIyWlLk6GJQsqaUBKTNV-1" source="idAk820mfBJ3iC1625Qn-2" target="idAk820mfBJ3iC1625Qn-6">
          <mxGeometry relative="1" as="geometry" />
        </mxCell>
        <mxCell id="idAk820mfBJ3iC1625Qn-2" value="getBean" style="whiteSpace=wrap;html=1;rounded=1;" vertex="1" parent="WIyWlLk6GJQsqaUBKTNV-1">
          <mxGeometry x="107.5" y="180" width="75" height="30" as="geometry" />
        </mxCell>
        <mxCell id="idAk820mfBJ3iC1625Qn-9" value="" style="edgeStyle=orthogonalEdgeStyle;rounded=0;orthogonalLoop=1;jettySize=auto;html=1;" edge="1" parent="WIyWlLk6GJQsqaUBKTNV-1" source="idAk820mfBJ3iC1625Qn-6" target="idAk820mfBJ3iC1625Qn-8">
          <mxGeometry relative="1" as="geometry" />
        </mxCell>
        <mxCell id="idAk820mfBJ3iC1625Qn-6" value="doGetBean" style="whiteSpace=wrap;html=1;rounded=1;" vertex="1" parent="WIyWlLk6GJQsqaUBKTNV-1">
          <mxGeometry x="240" y="165" width="120" height="60" as="geometry" />
        </mxCell>
        <mxCell id="idAk820mfBJ3iC1625Qn-8" value="" style="whiteSpace=wrap;html=1;rounded=1;" vertex="1" parent="WIyWlLk6GJQsqaUBKTNV-1">
          <mxGeometry x="440" y="165" width="120" height="60" as="geometry" />
        </mxCell>
      </root>
    </mxGraphModel>
  </diagram>
</mxfile>
